<svg id="图层_1" data-name="图层 1" xmlns="http://www.w3.org/2000/svg" viewBox="0 0 45.35 37.26"><defs><style>.cls-1{fill:#fff;}.cls-1,.cls-2,.cls-4,.cls-6,.cls-8{fill-rule:evenodd;}.cls-2{fill:#fed200;}.cls-3,.cls-5,.cls-7{fill:none;stroke-linecap:round;stroke-linejoin:round;}.cls-3,.cls-5{stroke:#fff;}.cls-3,.cls-7{stroke-width:0.71px;}.cls-4{fill:#e4661b;}.cls-5{stroke-width:1.42px;}.cls-7{stroke:#976730;}.cls-8{fill:#f8d6c7;}</style></defs><title>dora名片</title><path class="cls-1" d="M55.89,60.87a8,8,0,0,0,1.47,0,2.8,2.8,0,0,0,1.27-.29,2.43,2.43,0,0,0,0-4,5.39,5.39,0,0,0-2.7-.36Zm-.61.62A9.09,9.09,0,0,0,59,61.16a3.09,3.09,0,0,0,0-5.21,8,8,0,0,0-3.63-.38Z" transform="translate(-55.28 -24.35)"/><path class="cls-1" d="M84,57.62A1.72,1.72,0,0,0,84.67,61c2.25-.45,1.52-3.86-.65-3.38m2,3.24,0,.65c.85,0,.62.11.62-2.18,0-.65.06-1.61,0-2.22l-.59,0,0,.68c-.21-.06-.38-.47-1-.69a2.32,2.32,0,0,0-3,2.21,2.28,2.28,0,0,0,3.51,2A4.74,4.74,0,0,1,86,60.86Z" transform="translate(-55.28 -24.35)"/><path class="cls-1" d="M72,57.63A1.72,1.72,0,0,0,72.81,61,1.72,1.72,0,0,0,72,57.63m2.08,3.23v.61h.6V57.11h-.61v.63c-.31-.09-.31-.45-1.08-.66a2.51,2.51,0,0,0-1.56.09,2.33,2.33,0,0,0,.07,4.28,2.37,2.37,0,0,0,1.49,0,1.91,1.91,0,0,0,.6-.27C73.72,61.12,73.9,60.88,74.07,60.86Z" transform="translate(-55.28 -24.35)"/><path class="cls-1" d="M76.3,55.91v5.55l.63,0c.07-3.07-.39-2.83.73-2.83.47,0,2,0,2.28,0V61.5c.78,0,.63.2.63-1.46,0-1.09.06-3.7,0-4.47h-.63V58a29.63,29.63,0,0,1-3,0V55.56c-.78,0-.63,0-.63.35" transform="translate(-55.28 -24.35)"/><path class="cls-1" d="M94.45,61.47a8.28,8.28,0,0,0,0-1.82,2,2,0,0,1,.69.54c.23.19.45.38.64.56,1,.85.65.76,1.62.75,0-.36-2.23-1.87-2.46-2.32.35-.42,2.31-1.85,2.34-2.09-.91-.06-.82,0-1.55.63a8.38,8.38,0,0,1-1.28,1V55.39h-.65v6c0,.26.51.21.6.12" transform="translate(-55.28 -24.35)"/><path class="cls-1" d="M92.48,60.59A.86.86,0,0,0,92,60.3a2.34,2.34,0,0,1-.82.61,1.85,1.85,0,0,1-2.57-1.57c0-1.92,2.48-2.34,3.37-1a1,1,0,0,0,.49-.27c-.14-.76-1.71-1.25-2.8-.93a2.28,2.28,0,0,0,0,4.4c1,.32,2.58-.15,2.84-.91" transform="translate(-55.28 -24.35)"/><path class="cls-1" d="M98.31,60.57A.88.88,0,0,0,98,61a1.57,1.57,0,0,0,2,.49,1.27,1.27,0,0,0,.43-1.86c-.41-.51-1.35-.74-1.6-1.18s.34-1.11,1-.72c.2.11.23.23.45.26a.78.78,0,0,0,.33-.37,1.6,1.6,0,0,0-2-.37,1.16,1.16,0,0,0-.06,1.87c.46.4,1.47.61,1.45,1.27a.73.73,0,0,1-.72.67c-.54,0-.67-.33-1-.44" transform="translate(-55.28 -24.35)"/><path class="cls-2" d="M63.53,61v-.89h.58V61a1.53,1.53,0,0,0,1.29-1.07c.32-1,0-.68-1.64-.68a13.9,13.9,0,0,0-1.72,0c-.1.93.88,1.85,1.48,1.74" transform="translate(-55.28 -24.35)"/><path class="cls-1" d="M67.84,57.58c0-.58.08-.52-.58-.49-.12.45-.05,3.7,0,4.38h.61c0-1-.18-2.89.39-3.56.27-.32.49-.34.93-.28a.84.84,0,0,0,.29-.51c-.93-.45-1.37.37-1.61.46" transform="translate(-55.28 -24.35)"/><path class="cls-2" d="M62.21,58.67h3.16a1.7,1.7,0,0,0-2.6-.79c-.17.13-.57.47-.56.79" transform="translate(-55.28 -24.35)"/><path class="cls-1" d="M78.53,32.08h0a1.41,1.41,0,0,1,.39.56c.64,0,1-.25,1-.79C79.28,32.16,78.69,31.34,78.53,32.08Zm-5.62-.39h0a3.52,3.52,0,0,0-1.24.67c-.67,1.55,3.87,2.23,3,.56-.32,0-.6.29-1,.28a1.36,1.36,0,0,1-1-.56c.23-.15.46.18.79.22a1.56,1.56,0,0,0,1.06-.22v-.39A1.16,1.16,0,0,1,72.91,31.69Zm-2.53,0h0c-.09.46.36.83,1,.73a3.65,3.65,0,0,1,.4-.62C71.49,31.38,71,32,70.38,31.74ZM77.68,30h0c-.16,0-.22.07-.33.11-.28.11-1,.08-1.41.39a1.73,1.73,0,0,0-.33,1.35c.1.39.72.53,1.06.4s.48-.68.79-1.07c0,.78,1.45.89,1.18-.17-.29-.46-1-.05-1.24-.22.18-.18.3-.41.73-.34A.59.59,0,0,0,77.68,30Zm-4.49.11h0c-.22-.42-1.15-.16-1,.23.37-.05.76.15.62.45-.29-.14-.93-.21-1.13.05-.07.6.12.94.73.85.2-.14.27-.41.45-.57.25.13.17.46.34.68a1.17,1.17,0,0,0,.9.39c.31,0,.39-.27.62-.5C74.75,30.61,74.24,30.09,73.19,30.11Zm6.4,0h0c.81.31.57,1.42.51,2.25.94-.48.73-2.57-.56-2.53C79.49,30,79.62,30,79.59,30.11Zm-9.38,2.14h0A10.44,10.44,0,0,1,70,31c0-.66.57-.8.68-1.29C69.45,29.64,69.24,31.84,70.21,32.25Zm7.81-3h0a3.78,3.78,0,0,1-.22.5c.57.2.67.87,1.06,1.24-.07.35.18.38.23.62.84.33,1.11-.64.62-1.18-.28-.28-1,.08-1.18-.17a1.15,1.15,0,0,1,.78-.28C79.21,29.43,78.77,29.19,78,29.27Zm-7.08.62h0c.19.06.84-.07.79.39-.84-.21-1.56,0-1.41,1,.18.29.76.27,1,.06,0-.69.53-.86.67-1.41.1-.16.38-.14.45-.33s-.18-.28-.23-.45C71.49,29.08,71.07,29.34,70.94,29.89Zm5,.39h0c0-.08.13-.06.17-.11,0-.28-.26-.33-.28-.62s.1-.7-.17-.84C75.42,29.17,75.41,30.13,75.94,30.28Zm-1.51-.67h0c0,.2-.24.2-.28.39.6.6.85-1.14.39-1.46A2,2,0,0,0,74.43,29.61Zm3.31-.23h0c.14-.55-.55-1.18-.84-1.23-.6-.12-1,.19-.84.89.41,0,.78-.08.84.34-.16.08-.58-.19-.79.06C76.21,30.33,77.61,29.88,77.74,29.38Zm-5.22-.28h0c0,.67,1.46,1.14,1.68.28-.17-.34-.63,0-.84-.11,0-.48.59-.33.84-.34.21-.43-.13-.76-.34-.95C73.19,27.94,72.47,28.52,72.52,29.1Zm6.12,4h0a2.29,2.29,0,0,0-.06-.67,11,11,0,0,0-1.18-.62,1.2,1.2,0,0,1-1.74.56c0,.61.57.69,1.07.62.32,0,.58-.39.79-.23-.3.66-1.3.6-2,.34-.21.23,0,.61.11.79A2.93,2.93,0,0,0,78.64,33.09Z" transform="translate(-55.28 -24.35)"/><path class="cls-3" d="M78.53,32.08h0a1.41,1.41,0,0,1,.39.56c.64,0,1-.25,1-.79C79.28,32.16,78.69,31.34,78.53,32.08Zm-5.62-.39h0a3.52,3.52,0,0,0-1.24.67c-.67,1.55,3.87,2.23,3,.56-.32,0-.6.29-1,.28a1.36,1.36,0,0,1-1-.56c.23-.15.46.18.79.22a1.56,1.56,0,0,0,1.06-.22v-.39A1.16,1.16,0,0,1,72.91,31.69Zm-2.53,0h0c-.09.46.36.83,1,.73a3.65,3.65,0,0,1,.4-.62C71.49,31.38,71,32,70.38,31.74ZM77.68,30h0c-.16,0-.22.07-.33.11-.28.11-1,.08-1.41.39a1.73,1.73,0,0,0-.33,1.35c.1.39.72.53,1.06.4s.48-.68.79-1.07c0,.78,1.45.89,1.18-.17-.29-.46-1-.05-1.24-.22.18-.18.3-.41.73-.34A.59.59,0,0,0,77.68,30Zm-4.49.11h0c-.22-.42-1.15-.16-1,.23.37-.05.76.15.62.45-.29-.14-.93-.21-1.13.05-.07.6.12.94.73.85.2-.14.27-.41.45-.57.25.13.17.46.34.68a1.17,1.17,0,0,0,.9.39c.31,0,.39-.27.62-.5C74.75,30.61,74.24,30.09,73.19,30.11Zm6.4,0h0c.81.31.57,1.42.51,2.25.94-.48.73-2.57-.56-2.53C79.49,30,79.62,30,79.59,30.11Zm-9.38,2.14h0A10.44,10.44,0,0,1,70,31c0-.66.57-.8.68-1.29C69.45,29.64,69.24,31.84,70.21,32.25Zm7.81-3h0a3.78,3.78,0,0,1-.22.5c.57.2.67.87,1.06,1.24-.07.35.18.38.23.62.84.33,1.11-.64.62-1.18-.28-.28-1,.08-1.18-.17a1.15,1.15,0,0,1,.78-.28C79.21,29.43,78.77,29.19,78,29.27Zm-7.08.62h0c.19.06.84-.07.79.39-.84-.21-1.56,0-1.41,1,.18.29.76.27,1,.06,0-.69.53-.86.67-1.41.1-.16.38-.14.45-.33s-.18-.28-.23-.45C71.49,29.08,71.07,29.34,70.94,29.89Zm5,.39h0c0-.08.13-.06.17-.11,0-.28-.26-.33-.28-.62s.1-.7-.17-.84C75.42,29.17,75.41,30.13,75.94,30.28Zm-1.51-.67h0c0,.2-.24.2-.28.39.6.6.85-1.14.39-1.46A2,2,0,0,0,74.43,29.61Zm3.31-.23h0c.14-.55-.55-1.18-.84-1.23-.6-.12-1,.19-.84.89.41,0,.78-.08.84.34-.16.08-.58-.19-.79.06C76.21,30.33,77.61,29.88,77.74,29.38Zm-5.22-.28h0c0,.67,1.46,1.14,1.68.28-.17-.34-.63,0-.84-.11,0-.48.59-.33.84-.34.21-.43-.13-.76-.34-.95C73.19,27.94,72.47,28.52,72.52,29.1Zm6.12,4h0a2.29,2.29,0,0,0-.06-.67,11,11,0,0,0-1.18-.62,1.2,1.2,0,0,1-1.74.56c0,.61.57.69,1.07.62.32,0,.58-.39.79-.23-.3.66-1.3.6-2,.34-.21.23,0,.61.11.79A2.93,2.93,0,0,0,78.64,33.09Z" transform="translate(-55.28 -24.35)"/><path class="cls-4" d="M77.12,39.3c6.11-.86,11.25.09,11.48,2.1S84.06,45.74,78,46.6s-11.25-.1-11.48-2.11S71,40.15,77.12,39.3Z" transform="translate(-55.28 -24.35)"/><path class="cls-3" d="M77.12,39.3c6.11-.86,11.25.09,11.48,2.1S84.06,45.74,78,46.6s-11.25-.1-11.48-2.11S71,40.15,77.12,39.3Z" transform="translate(-55.28 -24.35)"/><path class="cls-5" d="M77.32,38.76c6.39-.89,11.75.09,12,2.2s-4.74,4.53-11.12,5.42-11.75-.09-12-2.2S70.94,39.65,77.32,38.76Z" transform="translate(-55.28 -24.35)"/><path class="cls-4" d="M77.32,38.76c6.39-.89,11.75.09,12,2.2s-4.74,4.53-11.12,5.42-11.75-.09-12-2.2,4.74-4.53,11.12-5.42" transform="translate(-55.28 -24.35)"/><path class="cls-5" d="M67.18,25.06c1.19.05,3,1.69,4.32,2.69a10.05,10.05,0,0,1,4.84-.67,7.2,7.2,0,0,1,2.36.78c.7-.51,1.35-1.13,2.13-1.62a4,4,0,0,1,2.64-1,4.73,4.73,0,0,1,.06,2.42c-.2,1.43-.55,2.91-.9,4.38a17.07,17.07,0,0,0-.56,2.08,8.51,8.51,0,0,0,.45,2.92,5.66,5.66,0,0,0,.9,2.41c3,2.48,5.62,6,6.18,7.81a1.58,1.58,0,0,1-.34,1.75A2,2,0,0,1,86.62,49a15.21,15.21,0,0,1-1.8-1.85,15.59,15.59,0,0,0-1.35-1.35.88.88,0,0,0-.5-.27,4.21,4.21,0,0,0-1.12.29,26.38,26.38,0,0,1-3.32.65c.43.56,1.35,1.34,1.91,2a2.33,2.33,0,0,1,.78,1.69c0,.38-.29.39-.45.73a3,3,0,0,1-1.91.51,5.34,5.34,0,0,1-1.57-.51c-.25-.13-.55-.32-.84-.51-7-4.43-7.29-8.69-8.09-15.9-.22-2-1.07-4.49-1.41-6.68C66.81,26.89,66.49,25.36,67.18,25.06Z" transform="translate(-55.28 -24.35)"/><path class="cls-6" d="M67.18,25.06c1.19.05,3,1.69,4.32,2.69a10.05,10.05,0,0,1,4.84-.67,7.2,7.2,0,0,1,2.36.78c.7-.51,1.35-1.13,2.13-1.62a4,4,0,0,1,2.64-1,4.73,4.73,0,0,1,.06,2.42c-.2,1.43-.55,2.91-.9,4.38a17.07,17.07,0,0,0-.56,2.08,8.51,8.51,0,0,0,.45,2.92,5.66,5.66,0,0,0,.9,2.41c3,2.48,5.62,6,6.18,7.81a1.58,1.58,0,0,1-.34,1.75A2,2,0,0,1,86.62,49a15.21,15.21,0,0,1-1.8-1.85,15.59,15.59,0,0,0-1.35-1.35.88.88,0,0,0-.5-.27,4.21,4.21,0,0,0-1.12.29,26.38,26.38,0,0,1-3.32.65c.43.56,1.35,1.34,1.91,2a2.33,2.33,0,0,1,.78,1.69c0,.38-.29.39-.45.73a3,3,0,0,1-1.91.51,5.34,5.34,0,0,1-1.57-.51c-.25-.13-.55-.32-.84-.51-7-4.43-7.29-8.69-8.09-15.9-.22-2-1.07-4.49-1.41-6.68-.14-.92-.46-2.45.23-2.75" transform="translate(-55.28 -24.35)"/><path class="cls-7" d="M78.53,32.08h0a1.41,1.41,0,0,1,.39.56c.64,0,1-.25,1-.79C79.28,32.16,78.69,31.34,78.53,32.08Zm-5.62-.39h0a3.52,3.52,0,0,0-1.24.67c-.67,1.55,3.87,2.23,3,.56-.32,0-.6.29-1,.28a1.36,1.36,0,0,1-1-.56c.23-.15.46.18.79.22a1.56,1.56,0,0,0,1.06-.22v-.39A1.16,1.16,0,0,1,72.91,31.69Zm-2.53,0h0c-.09.46.36.83,1,.73a3.65,3.65,0,0,1,.4-.62C71.49,31.38,71,32,70.38,31.74ZM77.68,30h0c-.16,0-.22.07-.33.11-.28.11-1,.08-1.41.39a1.73,1.73,0,0,0-.33,1.35c.1.39.72.53,1.06.4s.48-.68.79-1.07c0,.78,1.45.89,1.18-.17-.29-.46-1-.05-1.24-.22.18-.18.3-.41.73-.34A.59.59,0,0,0,77.68,30Zm-4.49.11h0c-.22-.42-1.15-.16-1,.23.37-.05.76.15.62.45-.29-.14-.93-.21-1.13.05-.07.6.12.94.73.85.2-.14.27-.41.45-.57.25.13.17.46.34.68a1.17,1.17,0,0,0,.9.39c.31,0,.39-.27.62-.5C74.75,30.61,74.24,30.09,73.19,30.11Zm6.4,0h0c.81.31.57,1.42.51,2.25.94-.48.73-2.57-.56-2.53C79.49,30,79.62,30,79.59,30.11Zm-9.38,2.14h0A10.44,10.44,0,0,1,70,31c0-.66.57-.8.68-1.29C69.45,29.64,69.24,31.84,70.21,32.25Zm7.81-3h0a3.78,3.78,0,0,1-.22.5c.57.2.67.87,1.06,1.24-.07.35.18.38.23.62.84.33,1.11-.64.62-1.18-.28-.28-1,.08-1.18-.17a1.15,1.15,0,0,1,.78-.28C79.21,29.43,78.77,29.19,78,29.27Zm-7.08.62h0c.19.06.84-.07.79.39-.84-.21-1.56,0-1.41,1,.18.29.76.27,1,.06,0-.69.53-.86.67-1.41.1-.16.38-.14.45-.33s-.18-.28-.23-.45C71.49,29.08,71.07,29.34,70.94,29.89Zm5,.39h0c0-.08.13-.06.17-.11,0-.28-.26-.33-.28-.62s.1-.7-.17-.84C75.42,29.17,75.41,30.13,75.94,30.28Zm-1.51-.67h0c0,.2-.24.2-.28.39.6.6.85-1.14.39-1.46A2,2,0,0,0,74.43,29.61Zm3.31-.23h0c.14-.55-.55-1.18-.84-1.23-.6-.12-1,.19-.84.89.41,0,.78-.08.84.34-.16.08-.58-.19-.79.06C76.21,30.33,77.61,29.88,77.74,29.38Zm-5.22-.28h0c0,.67,1.46,1.14,1.68.28-.17-.34-.63,0-.84-.11,0-.48.59-.33.84-.34.21-.43-.13-.76-.34-.95C73.19,27.94,72.47,28.52,72.52,29.1Zm6.12,4h0a2.29,2.29,0,0,0-.06-.67,11,11,0,0,0-1.18-.62,1.2,1.2,0,0,1-1.74.56c0,.61.57.69,1.07.62.32,0,.58-.39.79-.23-.3.66-1.3.6-2,.34-.21.23,0,.61.11.79A2.93,2.93,0,0,0,78.64,33.09Z" transform="translate(-55.28 -24.35)"/><path class="cls-7" d="M78.53,32.08h0a1.41,1.41,0,0,1,.39.56c.64,0,1-.25,1-.79C79.28,32.16,78.69,31.34,78.53,32.08Zm-5.62-.39h0a3.52,3.52,0,0,0-1.24.67c-.67,1.55,3.87,2.23,3,.56-.32,0-.6.29-1,.28a1.36,1.36,0,0,1-1-.56c.23-.15.46.18.79.22a1.56,1.56,0,0,0,1.06-.22v-.39A1.16,1.16,0,0,1,72.91,31.69Zm-2.53,0h0c-.09.46.36.83,1,.73a3.65,3.65,0,0,1,.4-.62C71.49,31.38,71,32,70.38,31.74ZM77.68,30h0c-.16,0-.22.07-.33.11-.28.11-1,.08-1.41.39a1.73,1.73,0,0,0-.33,1.35c.1.39.72.53,1.06.4s.48-.68.79-1.07c0,.78,1.45.89,1.18-.17-.29-.46-1-.05-1.24-.22.18-.18.3-.41.73-.34A.59.59,0,0,0,77.68,30Zm-4.49.11h0c-.22-.42-1.15-.16-1,.23.37-.05.76.15.62.45-.29-.14-.93-.21-1.13.05-.07.6.12.94.73.85.2-.14.27-.41.45-.57.25.13.17.46.34.68a1.17,1.17,0,0,0,.9.39c.31,0,.39-.27.62-.5C74.75,30.61,74.24,30.09,73.19,30.11Zm6.4,0h0c.81.31.57,1.42.51,2.25.94-.48.73-2.57-.56-2.53C79.49,30,79.62,30,79.59,30.11Zm-9.38,2.14h0A10.44,10.44,0,0,1,70,31c0-.66.57-.8.68-1.29C69.45,29.64,69.24,31.84,70.21,32.25Zm7.81-3h0a3.78,3.78,0,0,1-.22.5c.57.2.67.87,1.06,1.24-.07.35.18.38.23.62.84.33,1.11-.64.62-1.18-.28-.28-1,.08-1.18-.17a1.15,1.15,0,0,1,.78-.28C79.21,29.43,78.77,29.19,78,29.27Zm-7.08.62h0c.19.06.84-.07.79.39-.84-.21-1.56,0-1.41,1,.18.29.76.27,1,.06,0-.69.53-.86.67-1.41.1-.16.38-.14.45-.33s-.18-.28-.23-.45C71.49,29.08,71.07,29.34,70.94,29.89Zm5,.39h0c0-.08.13-.06.17-.11,0-.28-.26-.33-.28-.62s.1-.7-.17-.84C75.42,29.17,75.41,30.13,75.94,30.28Zm-1.51-.67h0c0,.2-.24.2-.28.39.6.6.85-1.14.39-1.46A2,2,0,0,0,74.43,29.61Zm3.31-.23h0c.14-.55-.55-1.18-.84-1.23-.6-.12-1,.19-.84.89.41,0,.78-.08.84.34-.16.08-.58-.19-.79.06C76.21,30.33,77.61,29.88,77.74,29.38Zm-5.22-.28h0c0,.67,1.46,1.14,1.68.28-.17-.34-.63,0-.84-.11,0-.48.59-.33.84-.34.21-.43-.13-.76-.34-.95C73.19,27.94,72.47,28.52,72.52,29.1Zm6.12,4h0a2.29,2.29,0,0,0-.06-.67,11,11,0,0,0-1.18-.62,1.2,1.2,0,0,1-1.74.56c0,.61.57.69,1.07.62.32,0,.58-.39.79-.23-.3.66-1.3.6-2,.34-.21.23,0,.61.11.79A2.93,2.93,0,0,0,78.64,33.09Z" transform="translate(-55.28 -24.35)"/><path class="cls-8" d="M78.53,32.08h0a1.41,1.41,0,0,1,.39.56c.64,0,1-.25,1-.79-.65.31-1.24-.51-1.4.23m-5.62-.39h0a3.52,3.52,0,0,0-1.24.67c-.67,1.55,3.87,2.23,3,.56-.32,0-.6.29-1,.28a1.36,1.36,0,0,1-1-.56c.23-.15.46.18.79.22a1.56,1.56,0,0,0,1.06-.22v-.39A1.16,1.16,0,0,1,72.91,31.69Zm-2.53,0h0c-.09.46.36.83,1,.73a3.65,3.65,0,0,1,.4-.62C71.49,31.38,71,32,70.38,31.74ZM77.68,30h0c-.16,0-.22.07-.33.11-.28.11-1,.08-1.41.39a1.73,1.73,0,0,0-.33,1.35c.1.39.72.53,1.06.4s.48-.68.79-1.07c0,.78,1.45.89,1.18-.17-.29-.46-1-.05-1.24-.22.18-.18.3-.41.73-.34A.59.59,0,0,0,77.68,30Zm-4.49.11h0c-.22-.42-1.15-.16-1,.23.37-.05.76.15.62.45-.29-.14-.93-.21-1.13.05-.07.6.12.94.73.85.2-.14.27-.41.45-.57.25.13.17.46.34.68a1.17,1.17,0,0,0,.9.39c.31,0,.39-.27.62-.5C74.75,30.61,74.24,30.09,73.19,30.11Zm6.4,0h0c.81.31.57,1.42.51,2.25.94-.48.73-2.57-.56-2.53C79.49,30,79.62,30,79.59,30.11Zm-9.38,2.14h0A10.44,10.44,0,0,1,70,31c0-.66.57-.8.68-1.29C69.45,29.64,69.24,31.84,70.21,32.25Zm7.81-3h0a3.78,3.78,0,0,1-.22.5c.57.2.67.87,1.06,1.24-.07.35.18.38.23.62.84.33,1.11-.64.62-1.18-.28-.28-1,.08-1.18-.17a1.15,1.15,0,0,1,.78-.28C79.21,29.43,78.77,29.19,78,29.27Zm-7.08.62h0c.19.06.84-.07.79.39-.84-.21-1.56,0-1.41,1,.18.29.76.27,1,.06,0-.69.53-.86.67-1.41.1-.16.38-.14.45-.33s-.18-.28-.23-.45C71.49,29.08,71.07,29.34,70.94,29.89Zm5,.39h0c0-.08.13-.06.17-.11,0-.28-.26-.33-.28-.62s.1-.7-.17-.84C75.42,29.17,75.41,30.13,75.94,30.28Zm-1.51-.67h0c0,.2-.24.2-.28.39.6.6.85-1.14.39-1.46A2,2,0,0,0,74.43,29.61Zm3.31-.23h0c.14-.55-.55-1.18-.84-1.23-.6-.12-1,.19-.84.89.41,0,.78-.08.84.34-.16.08-.58-.19-.79.06C76.21,30.33,77.61,29.88,77.74,29.38Zm-5.22-.28h0c0,.67,1.46,1.14,1.68.28-.17-.34-.63,0-.84-.11,0-.48.59-.33.84-.34.21-.43-.13-.76-.34-.95C73.19,27.94,72.47,28.52,72.52,29.1Zm6.12,4h0a2.29,2.29,0,0,0-.06-.67,11,11,0,0,0-1.18-.62,1.2,1.2,0,0,1-1.74.56c0,.61.57.69,1.07.62.32,0,.58-.39.79-.23-.3.66-1.3.6-2,.34-.21.23,0,.61.11.79A2.93,2.93,0,0,0,78.64,33.09Z" transform="translate(-55.28 -24.35)"/></svg>